Coordinates
version=1
nRows=14
nColumns=46
inDegrees=yes

Units are S.I. units (second, meters, Newtons, ...)
Angles are in degrees.

endheader
time	pelvis_tilt	pelvis_list	pelvis_rotation	pelvis_tx	pelvis_ty	pelvis_tz	bb_angle	bb_tx	bb_ty	bb_tz	hip_flexion_r	hip_adduction_r	hip_rotation_r	knee_angle_r	knee_angle_r_beta	ankle_angle_r	subtalar_angle_r	mtp_angle_r	crank_angle_r	hip_flexion_l	hip_adduction_l	hip_rotation_l	knee_angle_l	knee_angle_l_beta	ankle_angle_l	subtalar_angle_l	mtp_angle_l	crank_angle_l	lumbar_extension	lumbar_bending	lumbar_rotation	arm_flex_r	arm_add_r	arm_rot_r	elbow_flex_r	pro_sup_r	wrist_flex_r	wrist_dev_r	arm_flex_l	arm_add_l	arm_rot_l	elbow_flex_l	pro_sup_l	wrist_flex_l	wrist_dev_l
      2.50000000	     -9.25274301	     -2.27539950	     -0.33625333	      0.18011911	      1.05309703	     -0.32041806	      0.00000000	      0.50000000	      0.00000000	      0.25000000	     77.33635784	     -2.14991229	      3.02730786	     89.21133342	      1.55703150	     19.05687505	    -10.36169885	      0.00000000	      0.00000000	     47.01359295	     -9.14463710	     -0.47438646	     72.35198939	      1.26278044	    -14.07024311	    -10.75221493	      0.00000000	      0.00000000	    -58.70837035	      2.96821532	      4.33833744	     89.50847767	     -7.85181117	     41.70412726	     31.07515550	     31.39214470	      0.00000000	      0.00000000	     88.87340770	     -6.91953873	     40.29099123	     25.73315363	     34.80147652	      0.00000000	      0.00000000
      2.50500000	     -9.40190580	     -2.15954063	     -0.28317291	      0.18020611	      1.05322030	     -0.32054202	      0.00000000	      0.50000000	      0.00000000	      0.25000000	     77.34630605	     -2.17429505	      3.18617595	     88.88841993	      1.55139559	     18.83068458	    -10.50317990	      0.00000000	      0.00000000	     47.23343836	     -8.97212288	     -0.45481004	     72.55807963	      1.26637739	    -14.06139357	    -10.77229148	      0.00000000	      0.00000000	    -58.63849169	      3.07560521	      4.25000635	     89.50460136	     -7.79517340	     41.67309320	     31.02315586	     31.70668407	      0.00000000	      0.00000000	     88.87076763	     -7.03896654	     40.15595948	     25.66565336	     35.06268385	      0.00000000	      0.00000000
      2.51000000	     -9.88623488	     -2.01754149	     -0.29252148	      0.18015098	      1.05265084	     -0.32046047	      0.00000000	      0.50000000	      0.00000000	      0.25000000	     77.81632735	     -2.11621532	      3.51379515	     88.68558461	      1.54785545	     18.37549772	    -10.40240182	      0.00000000	      0.00000000	     47.84125212	     -8.82470523	     -0.35870047	     72.86650557	      1.27176044	    -13.42837346	     -9.97972816	      0.00000000	      0.00000000	    -58.39841176	      3.11797261	      4.29160457	     89.45266298	     -8.05297541	     39.73930938	     33.30606863	     32.73336112	      0.00000000	      0.00000000	     88.55874014	     -7.35581651	     38.32130541	     27.96783913	     35.84969224	      0.00000000	      0.00000000
      2.51500000	     -9.70850492	     -2.03218486	     -0.11873212	      0.18026614	      1.05341874	     -0.32085580	      0.00000000	      0.50000000	      0.00000000	      0.25000000	     77.34961711	     -2.24629839	      3.44570657	     88.26081897	      1.54044189	     18.49793282	    -10.59175935	      0.00000000	      0.00000000	     47.71702880	     -8.64240981	     -0.18180913	     73.01776179	      1.27440036	    -13.64105626	    -10.43537474	      0.00000000	      0.00000000	    -58.45568903	      3.36040287	      4.11390274	     89.50964714	     -7.88399197	     41.97248235	     31.25744376	     32.19665354	      0.00000000	      0.00000000	     88.86328018	     -7.15131104	     40.21825744	     25.45378398	     35.47180830	      0.00000000	      0.00000000
      2.52000000	     -9.64824533	     -1.99750891	      0.01258319	      0.18023272	      1.05392625	     -0.32107831	      0.00000000	      0.50000000	      0.00000000	      0.25000000	     77.09757261	     -2.30926062	      3.51875259	     87.90452655	      1.53422342	     18.22983535	    -10.79680292	      0.00000000	      0.00000000	     47.72870189	     -8.46356667	     -0.05234003	     73.20111352	      1.27760045	    -13.73632604	    -10.73897357	      0.00000000	      0.00000000	    -58.70004225	      3.56199046	      4.15581333	     89.50083962	     -8.11430750	     41.23105349	     32.19631114	     32.78216706	      0.00000000	      0.00000000	     88.80940526	     -7.29500858	     39.42752254	     26.39037251	     35.94491525	      0.00000000	      0.00000000
      2.52500000	     -9.90701260	     -1.97862777	      0.05536668	      0.18025347	      1.05386812	     -0.32105537	      0.00000000	      0.50000000	      0.00000000	      0.25000000	     77.18665579	     -2.26954818	      3.65148686	     87.54186800	      1.52789383	     18.14520218	    -10.67108127	      0.00000000	      0.00000000	     48.10617498	     -8.36746731	      0.12746059	     73.48463488	      1.28254883	    -13.35327292	    -10.33765379	      0.00000000	      0.00000000	    -58.43655342	      3.70366917	      4.16133814	     89.50927546	     -8.31883527	     42.47260979	     32.21417081	     32.12667402	      0.00000000	      0.00000000	     88.86666020	     -7.46336440	     40.70005221	     25.73030299	     35.51525738	      0.00000000	      0.00000000
      2.53000000	     -9.94569401	     -1.86411035	      0.15630982	      0.18029865	      1.05417709	     -0.32121511	      0.00000000	      0.50000000	      0.00000000	      0.25000000	     77.04310505	     -2.34612834	      3.78769079	     87.22449954	      1.52235471	     17.98667644	    -10.86971960	      0.00000000	      0.00000000	     48.21860678	     -8.14726637	      0.20320223	     73.69177304	      1.28616407	    -13.35994450	    -10.35942192	      0.00000000	      0.00000000	    -58.49870201	      3.80456312	      4.06004782	     89.51076164	     -8.29213170	     42.03479765	     32.36905396	     33.19308049	      0.00000000	      0.00000000	     88.83235527	     -7.38576924	     39.70833420	     25.94944446	     36.34122942	      0.00000000	      0.00000000
      2.53500000	    -10.08094272	     -1.82050371	      0.21961681	      0.18035945	      1.05433601	     -0.32135520	      0.00000000	      0.50000000	      0.00000000	      0.25000000	     76.97687817	     -2.36432233	      3.89638065	     86.85774765	      1.51595368	     17.87970843	    -10.82478028	      0.00000000	      0.00000000	     48.44521791	     -8.00191521	      0.33743626	     73.93082622	      1.29033634	    -13.22530636	    -10.36755609	      0.00000000	      0.00000000	    -58.45095983	      3.96009750	      4.03633008	     89.51096421	     -8.30358961	     41.97276240	     32.48721365	     34.05901947	      0.00000000	      0.00000000	     88.79888540	     -7.43687388	     39.25475176	     26.11217007	     36.97781482	      0.00000000	      0.00000000
      2.54000000	    -10.05475309	     -1.89188572	      0.37690815	      0.18029074	      1.05478391	     -0.32158307	      0.00000000	      0.50000000	      0.00000000	      0.25000000	     76.68187113	     -2.40990705	      3.86289091	     86.44372852	      1.50872768	     17.82152494	    -11.04190596	      0.00000000	      0.00000000	     48.55346755	     -7.87924740	      0.58914461	     74.18765494	      1.29481884	    -13.27701411	    -10.55240890	      0.00000000	      0.00000000	    -58.69106261	      4.24847435	      4.15436998	     89.50640194	     -8.49153489	     40.99917953	     33.64617128	     34.13147155	      0.00000000	      0.00000000	     88.67184471	     -7.73080254	     38.38545842	     27.54962295	     37.02069753	      0.00000000	      0.00000000
      2.54500000	    -10.25611628	     -1.70032938	      0.40074960	      0.18034030	      1.05475246	     -0.32169124	      0.00000000	      0.50000000	      0.00000000	      0.25000000	     76.71807733	     -2.44074352	      4.16742505	     86.10045357	      1.50273640	     17.72765868	    -10.93702977	      0.00000000	      0.00000000	     48.82729302	     -7.63588932	      0.59686699	     74.45701884	      1.29952013	    -13.01978270	    -10.39612879	      0.00000000	      0.00000000	    -58.43492069	      4.23619455	      3.99047093	     89.51701781	     -8.54678657	     42.13113222	     33.25564113	     33.78345826	      0.00000000	      0.00000000	     88.79051135	     -7.69492013	     39.78812802	     26.49908345	     36.91749202	      0.00000000	      0.00000000
      2.55000000	    -10.36364933	     -1.56631170	      0.46956360	      0.18038330	      1.05491125	     -0.32182682	      0.00000000	      0.50000000	      0.00000000	      0.25000000	     76.61592587	     -2.51252640	      4.31714278	     85.72423112	      1.49617008	     17.63944692	    -11.04447601	      0.00000000	      0.00000000	     49.01483769	     -7.40257384	      0.64843083	     74.69506269	      1.30367478	    -12.94805035	    -10.47122520	      0.00000000	      0.00000000	    -58.39181566	      4.33411946	      3.92146305	     89.51455169	     -8.46803901	     41.95833344	     33.39833062	     33.65604227	      0.00000000	      0.00000000	     88.73947645	     -7.80572402	     39.55766940	     26.70152099	     36.86090612	      0.00000000	      0.00000000
      2.55500000	    -10.47732906	     -1.61293451	      0.53081102	      0.18034255	      1.05503600	     -0.32194672	      0.00000000	      0.50000000	      0.00000000	      0.25000000	     76.47164958	     -2.50181707	      4.31518884	     85.29600335	      1.48869610	     17.50392953	    -11.13312412	      0.00000000	      0.00000000	     49.28433425	     -7.35090661	      0.83871514	     75.02059962	      1.30935647	    -12.76873774	    -10.36316717	      0.00000000	      0.00000000	    -58.38213153	      4.51368267	      3.93992814	     89.51979710	     -8.53329183	     41.97611611	     33.78909585	     33.79587917	      0.00000000	      0.00000000	     88.74643076	     -7.91353721	     39.70391341	     26.86034235	     37.08936969	      0.00000000	      0.00000000
      2.56000000	    -10.57393847	     -1.53607407	      0.59720844	      0.18033915	      1.05526124	     -0.32209422	      0.00000000	      0.50000000	      0.00000000	      0.25000000	     76.31902155	     -2.52993945	      4.42867831	     84.89784969	      1.48174700	     17.50636031	    -11.26282461	      0.00000000	      0.00000000	     49.47589683	     -7.17799523	      0.91750675	     75.27899447	      1.31386631	    -12.66352949	    -10.37111907	      0.00000000	      0.00000000	    -58.36658690	      4.59743694	      3.91181001	     89.52005364	     -8.60606523	     41.81163190	     34.02702953	     34.13175662	      0.00000000	      0.00000000	     88.72849680	     -7.91357171	     39.31165362	     26.94444203	     37.64090779	      0.00000000	      0.00000000
      2.56500000	    -10.68880424	     -1.42553359	      0.67871831	      0.18029973	      1.05537406	     -0.32225572	      0.00000000	      0.50000000	      0.00000000	      0.25000000	     76.19385161	     -2.59779568	      4.55013868	     84.50216047	      1.47484093	     17.46432812	    -11.42535952	      0.00000000	      0.00000000	     49.69416859	     -6.94741172	      1.01045934	     75.53818253	      1.31839000	    -12.60305100	    -10.45289256	      0.00000000	      0.00000000	    -58.34664172	      4.69963557	      3.82526777	     89.52040611	     -8.91197810	     42.56481950	     35.00106141	     32.73747065	      0.00000000	      0.00000000	     88.77824857	     -8.70281485	     42.05272649	     27.75634833	     37.68679614	      0.00000000	      0.00000000
